<?xml version="1.0" encoding="UTF-8"?>
<svg version="1.1" xmlns="http://www.w3.org/2000/svg" width="8192" height="3086">
<path d="M0 0 C3.39145307 1.69572653 4.7940711 2.58254628 7.25 5.1875 C9.63331791 7.70650185 12.13360429 10.01349266 14.75 12.28515625 C18.84647069 15.84194667 22.80825102 19.52340665 26.75 23.25 C32.4868045 28.65110852 38.2564645 34.01030248 44.07421875 39.32421875 C47.22544585 42.20618212 50.3640404 45.1014515 53.5 48 C57.65837867 51.84244309 61.82409086 55.67661608 66 59.5 C71.80107262 64.81199816 77.58169141 70.14594356 83.35888672 75.48388672 C86.07177585 77.99014104 88.78593292 80.49502145 91.5 83 C94.76235685 86.01102872 98.02443592 89.02235526 101.28515625 92.03515625 C106.51475125 96.86630592 111.74924378 101.6918495 117 106.5 C122.80103264 111.81204208 128.58169117 117.14594334 134.35888672 122.48388672 C137.07177585 124.99014104 139.78593292 127.49502145 142.5 130 C145.76235685 133.01102872 149.02443592 136.02235526 152.28515625 139.03515625 C157.51475125 143.86630592 162.74924378 148.6918495 168 153.5 C173.80103264 158.81204208 179.58169117 164.14594334 185.35888672 169.48388672 C188.07177585 171.99014104 190.78593292 174.49502145 193.5 177 C196.76235685 180.01102872 200.02443592 183.02235526 203.28515625 186.03515625 C208.51475125 190.86630592 213.74924378 195.6918495 219 200.5 C224.80103264 205.81204208 230.58169117 211.14594334 236.35888672 216.48388672 C239.07177585 218.99014104 241.78593292 221.49502145 244.5 224 C247.76235685 227.01102872 251.02443592 230.02235526 254.28515625 233.03515625 C259.60107102 237.94628988 264.92014226 242.85399762 270.25 247.75 C271.219375 248.64074219 272.18875 249.53148437 273.1875 250.44921875 C276.55843064 253.50646557 279.99060977 256.48844556 283.453125 259.44140625 C285 261 285 261 285 263 C285.56203125 263.2475 286.1240625 263.495 286.703125 263.75 C289.39092569 265.21274867 291.46405482 266.96804873 293.75 269 C294.94882812 270.051875 294.94882812 270.051875 296.171875 271.125 C298 273 298 273 298 275 C298.57234375 275.2578125 299.1446875 275.515625 299.734375 275.78125 C302.21128995 277.11365942 304.1341166 278.65056118 306.25 280.5 C306.95640625 281.1084375 307.6628125 281.716875 308.390625 282.34375 C310 284 310 284 310 286 C310.56203125 286.2475 311.1240625 286.495 311.703125 286.75 C314.39092569 288.21274867 316.46405482 289.96804873 318.75 292 C319.94882812 293.051875 319.94882812 293.051875 321.171875 294.125 C323 296 323 296 323 298 C323.56203125 298.2475 324.1240625 298.495 324.703125 298.75 C327.39092569 300.21274867 329.46405482 301.96804873 331.75 304 C332.94882812 305.051875 332.94882812 305.051875 334.171875 306.125 C336 308 336 308 336 310 C336.56203125 310.2475 337.1240625 310.495 337.703125 310.75 C340.39092569 312.21274867 342.46405482 313.96804873 344.75 316 C345.94882812 317.051875 345.94882812 317.051875 347.171875 318.125 C349 320 349 320 349 322 C349.57234375 322.2578125 350.1446875 322.515625 350.734375 322.78125 C353.21128995 324.11365942 355.1341166 325.65056118 357.25 327.5 C357.95640625 328.1084375 358.6628125 328.716875 359.390625 329.34375 C361 331 361 331 361 333 C361.56203125 333.2475 362.1240625 333.495 362.703125 333.75 C365.39092569 335.21274867 367.46405482 336.96804873 369.75 339 C370.94882812 340.051875 370.94882812 340.051875 372.171875 341.125 C374 343 374 343 374 345 C374.56203125 345.2475 375.1240625 345.495 375.703125 345.75 C378.39092569 347.21274867 380.46405482 348.96804873 382.75 351 C383.94882812 352.051875 383.94882812 352.051875 385.171875 353.125 C387 355 387 355 387 357 C387.56203125 357.2475 388.1240625 357.495 388.703125 357.75 C391.39092569 359.21274867 393.46405482 360.96804873 395.75 363 C396.94882812 364.051875 396.94882812 364.051875 398.171875 365.125 C400 367 400 367 400 369 C400.57234375 369.2578125 401.1446875 369.515625 401.734375 369.78125 C404.21128995 371.11365942 406.1341166 372.65056118 408.25 374.5 C408.95640625 375.1084375 409.6628125 375.716875 410.390625 376.34375 C412 378 412 378 412 380 C412.804375 380.3403125 412.804375 380.3403125 413.625 380.6875 C419.86940029 384.13835279 424.6534677 389.6219 429.61328125 394.6484375 C434.24191204 399.32395746 438.89277397 403.90373958 443.89453125 408.18359375 C446.52971383 410.45698874 449.10903234 412.78751063 451.6875 415.125 C453.02361328 416.33542969 453.02361328 416.33542969 454.38671875 417.5703125 C456.1326512 419.19358602 457.8429427 420.85603187 459.515625 422.5546875 C462.66440601 425.65395938 466.09198554 428.2582817 469.59765625 430.9375 C472 433 472 433 473.80859375 435.3125 C476.25066804 438.30741463 478.93911859 440.64735283 481.86816406 443.15283203 C485.30990841 446.13499393 488.57753369 449.29786529 491.875 452.4375 C497.05818083 457.34692977 502.25440562 462.02163775 507.984375 466.2890625 C510 468 510 468 511.984375 470.4921875 C513.98600565 472.98258842 515.92536365 474.63074347 518.5 476.5 C521.91806061 479.07882947 524.37202807 481.60906848 527 485 C528.19098696 486.08463947 529.40334587 487.14599032 530.62890625 488.19140625 C534.82847334 491.82267136 538.85502201 495.60993628 542.875 499.4375 C548.05818083 504.34692977 553.25440562 509.02163775 558.984375 513.2890625 C561 515 561 515 562.984375 517.4921875 C564.98600565 519.98258842 566.92536365 521.63074347 569.5 523.5 C572.91806061 526.07882947 575.37202807 528.60906848 578 532 C579.19098696 533.08463947 580.40334587 534.14599032 581.62890625 535.19140625 C585.82847334 538.82267136 589.85502201 542.60993628 593.875 546.4375 C599.05818083 551.34692977 604.25440562 556.02163775 609.984375 560.2890625 C612 562 612 562 613.765625 564.2734375 C616.22780552 567.27798646 618.92398309 569.63440606 621.86816406 572.15283203 C625.30990841 575.13499393 628.57753369 578.29786529 631.875 581.4375 C637.05818083 586.34692977 642.25440562 591.02163775 647.984375 595.2890625 C650 597 650 597 651.984375 599.4921875 C653.98600565 601.98258842 655.92536365 603.63074347 658.5 605.5 C661.91806061 608.07882947 664.37202807 610.60906848 667 614 C668.19341685 615.08870663 669.40838869 616.15396764 670.63671875 617.203125 C674.77581307 620.78328542 678.77376306 624.4908281 682.75 628.25 C689.4495214 634.55708081 696.20304042 640.79812306 703 647 C704.97971935 648.81190208 706.95904849 650.62421515 708.9375 652.4375 C709.67770386 653.11582886 709.67770386 653.11582886 710.43286133 653.80786133 C715.75371511 658.68667761 721.05668335 663.58482088 726.35888672 668.48388672 C729.07177585 670.99014104 731.78593292 673.49502145 734.5 676 C737.76235685 679.01102872 741.02443592 682.02235526 744.28515625 685.03515625 C749.51475125 689.86630592 754.74924378 694.6918495 760 699.5 C766.90106977 705.81935299 773.7730313 712.1700948 780.64550781 718.52050781 C786.42124684 723.85697495 792.20049542 729.18935718 798 734.5 C803.80103264 739.81204208 809.58169117 745.14594334 815.35888672 750.48388672 C818.07177585 752.99014104 820.78593292 755.49502145 823.5 758 C826.76235685 761.01102872 830.02443592 764.02235526 833.28515625 767.03515625 C838.51475125 771.86630592 843.74924378 776.6918495 849 781.5 C854.80103264 786.81204208 860.58169117 792.14594334 866.35888672 797.48388672 C869.07177585 799.99014104 871.78593292 802.49502145 874.5 805 C877.76235685 808.01102872 881.02443592 811.02235526 884.28515625 814.03515625 C889.51475125 818.86630592 894.74924378 823.6918495 900 828.5 C905.80103264 833.81204208 911.58169117 839.14594334 917.35888672 844.48388672 C920.07177585 846.99014104 922.78593292 849.49502145 925.5 852 C928.76235685 855.01102872 932.02443592 858.02235526 935.28515625 861.03515625 C940.51475125 865.86630592 945.74924378 870.6918495 951 875.5 C956.80103264 880.81204208 962.58169117 886.14594334 968.35888672 891.48388672 C971.07177585 893.99014104 973.78593292 896.49502145 976.5 899 C979.76235685 902.01102872 983.02443592 905.02235526 986.28515625 908.03515625 C991.51475125 912.86630592 996.74924378 917.6918495 1002 922.5 C1007.80103264 927.81204208 1013.58169117 933.14594334 1019.35888672 938.48388672 C1022.07177585 940.99014104 1024.78593292 943.49502145 1027.5 946 C1030.76235685 949.01102872 1034.02443592 952.02235526 1037.28515625 955.03515625 C1042.51475125 959.86630592 1047.74924378 964.6918495 1053 969.5 C1058.80103264 974.81204208 1064.58169117 980.14594334 1070.35888672 985.48388672 C1073.07177585 987.99014104 1075.78593292 990.49502145 1078.5 993 C1081.76235685 996.01102872 1085.02443592 999.02235526 1088.28515625 1002.03515625 C1093.51475125 1006.86630592 1098.74924378 1011.6918495 1104 1016.5 C1110.90106977 1022.81935299 1117.7730313 1029.1700948 1124.64550781 1035.52050781 C1130.42124684 1040.85697495 1136.20049542 1046.18935718 1142 1051.5 C1147.80103264 1056.81204208 1153.58169117 1062.14594334 1159.35888672 1067.48388672 C1162.07177586 1069.99014104 1164.78594859 1072.49500446 1167.5 1075 C1168.58333957 1075.99999324 1169.66667291 1076.99999324 1170.75 1078 C1171.28625 1078.495 1171.8225 1078.99 1172.375 1079.5 C1190.25 1096 1190.25 1096 1191.87524414 1097.50024414 C1192.95773871 1098.49945738 1194.04025821 1099.49864362 1195.12280273 1100.49780273 C1197.84417508 1103.00961835 1200.56510195 1105.52191333 1203.28515625 1108.03515625 C1208.51475125 1112.86630592 1213.74924378 1117.6918495 1219 1122.5 C1224.80103264 1127.81204208 1230.58169117 1133.14594334 1236.35888672 1138.48388672 C1239.07177585 1140.99014104 1241.78593292 1143.49502145 1244.5 1146 C1247.76235685 1149.01102872 1251.02443592 1152.02235526 1254.28515625 1155.03515625 C1259.51475125 1159.86630592 1264.74924378 1164.6918495 1270 1169.5 C1275.80103264 1174.81204208 1281.58169117 1180.14594334 1287.35888672 1185.48388672 C1290.07177585 1187.99014104 1292.78593292 1190.49502145 1295.5 1193 C1298.76235685 1196.01102872 1302.02443592 1199.02235526 1305.28515625 1202.03515625 C1310.51475125 1206.86630592 1315.74924378 1211.6918495 1321 1216.5 C1326.80103264 1221.81204208 1332.58169117 1227.14594334 1338.35888672 1232.48388672 C1341.07177585 1234.99014104 1343.78593292 1237.49502145 1346.5 1240 C1349.76235685 1243.01102872 1353.02443592 1246.02235526 1356.28515625 1249.03515625 C1361.51475125 1253.86630592 1366.74924378 1258.6918495 1372 1263.5 C1377.80103264 1268.81204208 1383.58169117 1274.14594334 1389.35888672 1279.48388672 C1392.07177585 1281.99014104 1394.78593292 1284.49502145 1397.5 1287 C1400.76235685 1290.01102872 1404.02443592 1293.02235526 1407.28515625 1296.03515625 C1412.51475125 1300.86630592 1417.74924378 1305.6918495 1423 1310.5 C1429.90106977 1316.81935299 1436.7730313 1323.1700948 1443.64550781 1329.52050781 C1449.42124684 1334.85697495 1455.20049542 1340.18935718 1461 1345.5 C1466.80103264 1350.81204208 1472.58169117 1356.14594334 1478.35888672 1361.48388672 C1481.07177585 1363.99014104 1483.78593292 1366.49502145 1486.5 1369 C1489.76235685 1372.01102872 1493.02443592 1375.02235526 1496.28515625 1378.03515625 C1501.51475125 1382.86630592 1506.74924378 1387.6918495 1512 1392.5 C1517.80103264 1397.81204208 1523.58169117 1403.14594334 1529.35888672 1408.48388672 C1532.07177585 1410.99014104 1534.78593292 1413.49502145 1537.5 1416 C1540.76235685 1419.01102872 1544.02443592 1422.02235526 1547.28515625 1425.03515625 C1552.51475125 1429.86630592 1557.74924378 1434.6918495 1563 1439.5 C1568.80103264 1444.81204208 1574.58169117 1450.14594334 1580.35888672 1455.48388672 C1583.07177585 1457.99014104 1585.78593292 1460.49502145 1588.5 1463 C1591.76235685 1466.01102872 1595.02443592 1469.02235526 1598.28515625 1472.03515625 C1603.51475887 1476.86631295 1608.7497425 1481.69128847 1614 1486.5 C1620.34718776 1492.31825545 1626.67305266 1498.15974091 1633 1504 C1633.33 1262.77 1633.66 1021.54 1634 773 C1710.621875 773.804375 1787.24375 774.60875 1866.1875 775.4375 C1890.19137451 775.68943115 1914.19524902 775.9413623 1938.92651367 776.20092773 C1968.72131351 776.51379395 1968.72131351 776.51379395 1982.76289368 776.66127014 C1992.36547283 776.76211643 2001.96805266 776.86289894 2011.57063293 776.96363831 C2015.30334414 777.00280396 2019.03605532 777.04197086 2022.76876651 777.08113806 C2025.24759111 777.10714451 2027.72641577 777.13314489 2030.2052405 777.15913911 C2043.37386447 777.29723414 2056.5424837 777.43574702 2069.71108818 777.57568932 C2074.25745491 777.62396237 2078.80382197 777.67220379 2083.35018921 777.72042847 C2084.46169385 777.73222694 2085.57319849 777.74402541 2086.71838509 777.7561814 C2101.12218942 777.90888614 2115.5260382 778.05588999 2129.92995971 778.19710416 C2137.38088646 778.27020951 2144.83179165 778.34540967 2152.28269193 778.42115988 C2158.12139347 778.48034959 2163.96011121 778.53694604 2169.7988601 778.59125128 C2173.39892144 778.62543171 2176.99895121 778.66236374 2180.59897839 778.69995563 C2182.20414376 778.71620314 2183.80931996 778.73143627 2185.41450752 778.74531968 C2203.28574462 778.90111989 2221.12989797 779.50360828 2239 780 C2239 1524.48 2239 2268.96 2239 3036 C2234.74927986 3034.93731996 2233.60754668 3034.03573539 2230.5 3031.125 C2229.62085937 3030.3103125 2228.74171875 3029.495625 2227.8359375 3028.65625 C2226.90007812 3027.7796875 2225.96421875 3026.903125 2225 3026 C2223.54182498 3024.6636671 2222.08361893 3023.32736494 2220.62304688 3021.99365234 C2219.10315453 3020.60504144 2217.58629918 3019.21318561 2216.0703125 3017.8203125 C2213.04900591 3015.04454702 2210.02478252 3012.27197667 2207 3009.5 C2205.99998648 3008.58334808 2204.99998649 3007.6666814 2204 3006.75 C2203.505 3006.29625 2203.01 3005.8425 2202.5 3005.375 C2174.00000001 2979.25000001 2174.00000001 2979.25000001 2172.49951172 2977.87451172 C2171.50119339 2976.95941367 2170.50282114 2976.04437445 2169.50439453 2975.12939453 C2166.9782158 2972.81421148 2164.45303168 2970.4979599 2161.9296875 2968.1796875 C2157.32650235 2963.95233249 2152.71586224 2959.73473917 2148.0625 2955.5625 C2143.09487617 2951.10356085 2138.19316748 2946.57561669 2133.29296875 2942.04296875 C2130.18217159 2939.16605238 2127.06201655 2936.29950383 2123.9375 2933.4375 C2123.44652832 2932.98777832 2122.95555664 2932.53805664 2122.44970703 2932.07470703 C2121.46115485 2931.16937398 2120.47254823 2930.26410037 2119.48388672 2929.35888672 C2116.98835593 2927.07357504 2114.49425473 2924.7867042 2112 2922.5 C2111.00000675 2921.58332596 2110.00000676 2920.6666593 2109 2919.75 C2090.99999998 2903.24999998 2090.99999998 2903.24999998 2089.49951172 2901.87451172 C2088.50119339 2900.95941367 2087.50282114 2900.04437445 2086.50439453 2899.12939453 C2083.9782158 2896.81421148 2081.45303168 2894.4979599 2078.9296875 2892.1796875 C2074.32650235 2887.95233249 2069.71586224 2883.73473917 2065.0625 2879.5625 C2060.09487617 2875.10356085 2055.19316748 2870.57561669 2050.29296875 2866.04296875 C2047.18217159 2863.16605238 2044.06201655 2860.29950383 2040.9375 2857.4375 C2040.44652832 2856.98777832 2039.95555664 2856.53805664 2039.44970703 2856.07470703 C2038.46115485 2855.16937398 2037.47254823 2854.26410037 2036.48388672 2853.35888672 C2033.98835593 2851.07357504 2031.49425473 2848.7867042 2029 2846.5 C2028.00000675 2845.58332596 2027.00000676 2844.6666593 2026 2843.75 C2020.00000002 2838.25000002 2020.00000002 2838.25000002 2018.49951172 2836.87451172 C2017.50119339 2835.95941367 2016.50282114 2835.04437445 2015.50439453 2834.12939453 C2012.9782158 2831.81421148 2010.45303168 2829.4979599 2007.9296875 2827.1796875 C2003.32650235 2822.95233249 1998.71586224 2818.73473917 1994.0625 2814.5625 C1989.09487617 2810.10356085 1984.19316748 2805.57561669 1979.29296875 2801.04296875 C1976.18217159 2798.16605238 1973.06201655 2795.29950383 1969.9375 2792.4375 C1969.44652832 2791.98777832 1968.95555664 2791.53805664 1968.44970703 2791.07470703 C1967.46115485 2790.16937398 1966.47254823 2789.26410037 1965.48388672 2788.35888672 C1962.98835593 2786.07357504 1960.49425473 2783.7867042 1958 2781.5 C1957.00000675 2780.58332596 1956.00000676 2779.6666593 1955 2778.75 C1948.99999999 2773.24999999 1948.99999999 2773.24999999 1947.49951172 2771.87451172 C1946.50119339 2770.95941367 1945.50282114 2770.04437445 1944.50439453 2769.12939453 C1941.9782158 2766.81421148 1939.45303168 2764.4979599 1936.9296875 2762.1796875 C1932.32650235 2757.95233249 1927.71586224 2753.73473917 1923.0625 2749.5625 C1918.09487617 2745.10356085 1913.19316748 2740.57561669 1908.29296875 2736.04296875 C1905.18217159 2733.16605238 1902.06201655 2730.29950383 1898.9375 2727.4375 C1898.44652832 2726.98777832 1897.95555664 2726.53805664 1897.44970703 2726.07470703 C1896.46115485 2725.16937398 1895.47254823 2724.26410037 1894.48388672 2723.35888672 C1891.98835593 2721.07357504 1889.49425473 2718.7867042 1887 2716.5 C1886.00000675 2715.58332596 1885.00000676 2714.6666593 1884 2713.75 C1877.99999998 2708.24999998 1877.99999998 2708.24999998 1876.49951172 2706.87451172 C1875.50119339 2705.95941367 1874.50282114 2705.04437445 1873.50439453 2704.12939453 C1870.9782158 2701.81421148 1868.45303168 2699.4979599 1865.9296875 2697.1796875 C1861.32650235 2692.95233249 1856.71586224 2688.73473917 1852.0625 2684.5625 C1847.09487617 2680.10356085 1842.19316748 2675.57561669 1837.29296875 2671.04296875 C1834.18217159 2668.16605238 1831.06201655 2665.29950383 1827.9375 2662.4375 C1827.44652832 2661.98777832 1826.95555664 2661.53805664 1826.44970703 2661.07470703 C1825.46115485 2660.16937398 1824.47254823 2659.26410037 1823.48388672 2658.35888672 C1820.98835593 2656.07357504 1818.49425473 2653.7867042 1816 2651.5 C1815.00000675 2650.58332596 1814.00000676 2649.6666593 1813 2648.75 C1807 2643.25 1807 2643.25 1805.49951172 2641.87451172 C1804.50119339 2640.95941367 1803.50282114 2640.04437445 1802.50439453 2639.12939453 C1799.9782158 2636.81421148 1797.45303168 2634.4979599 1794.9296875 2632.1796875 C1790.32650235 2627.95233249 1785.71586224 2623.73473917 1781.0625 2619.5625 C1776.09487617 2615.10356085 1771.19316748 2610.57561669 1766.29296875 2606.04296875 C1763.18217159 2603.16605238 1760.06201655 2600.29950383 1756.9375 2597.4375 C1756.44652832 2596.98777832 1755.95555664 2596.53805664 1755.44970703 2596.07470703 C1754.46115485 2595.16937398 1753.47254823 2594.26410037 1752.48388672 2593.35888672 C1749.98835593 2591.07357504 1747.49425473 2588.7867042 1745 2586.5 C1744.00000675 2585.58332596 1743.00000676 2584.6666593 1742 2583.75 C1736.00000001 2578.25000001 1736.00000001 2578.25000001 1734.49951172 2576.87451172 C1733.50119339 2575.95941367 1732.50282114 2575.04437445 1731.50439453 2574.12939453 C1728.9782158 2571.81421148 1726.45303168 2569.4979599 1723.9296875 2567.1796875 C1719.32650235 2562.95233249 1714.71586224 2558.73473917 1710.0625 2554.5625 C1705.09487617 2550.10356085 1700.19316748 2545.57561669 1695.29296875 2541.04296875 C1692.18217159 2538.16605238 1689.06201655 2535.29950383 1685.9375 2532.4375 C1685.44652832 2531.98777832 1684.95555664 2531.53805664 1684.44970703 2531.07470703 C1683.46115485 2530.16937398 1682.47254823 2529.26410037 1681.48388672 2528.35888672 C1678.98835593 2526.07357504 1676.49425473 2523.7867042 1674 2521.5 C1673.00000675 2520.58332596 1672.00000676 2519.6666593 1671 2518.75 C1653 2502.25 1653 2502.25 1651.49951172 2500.87451172 C1650.50119339 2499.95941367 1649.50282114 2499.04437445 1648.50439453 2498.12939453 C1645.9782158 2495.81421148 1643.45303168 2493.4979599 1640.9296875 2491.1796875 C1636.32650235 2486.95233249 1631.71586224 2482.73473917 1627.0625 2478.5625 C1622.09487617 2474.10356085 1617.19316748 2469.57561669 1612.29296875 2465.04296875 C1609.18217159 2462.16605238 1606.06201655 2459.29950383 1602.9375 2456.4375 C1602.44652832 2455.98777832 1601.95555664 2455.53805664 1601.44970703 2455.07470703 C1600.46115485 2454.16937398 1599.47254823 2453.26410037 1598.48388672 2452.35888672 C1596.48892041 2450.53197285 1594.49488251 2448.70404758 1592.50097656 2446.87597656 C1591.5043938 2445.96238833 1590.5076503 2445.04897539 1589.51074219 2444.13574219 C1586.9453398 2441.78538336 1584.38264626 2439.43216954 1581.82421875 2437.07421875 C1580.7787379 2436.11187914 1579.73316649 2435.14963789 1578.6875 2434.1875 C1578.18831055 2433.72738525 1577.68912109 2433.26727051 1577.17480469 2432.79321289 C1574.42314009 2430.26747928 1571.62528055 2427.82103237 1568.75 2425.4375 C1567.8425 2424.633125 1566.935 2423.82875 1566 2423 C1566 2422.34 1566 2421.68 1566 2421 C1565.42765625 2420.7421875 1564.8553125 2420.484375 1564.265625 2420.21875 C1561.78871005 2418.88634058 1559.8658834 2417.34943882 1557.75 2415.5 C1557.04359375 2414.8915625 1556.3371875 2414.283125 1555.609375 2413.65625 C1554 2412 1554 2412 1554 2410 C1553.42765625 2409.7421875 1552.8553125 2409.484375 1552.265625 2409.21875 C1549.78871005 2407.88634058 1547.8658834 2406.34943882 1545.75 2404.5 C1545.04359375 2403.8915625 1544.3371875 2403.283125 1543.609375 2402.65625 C1542 2401 1542 2401 1542 2399 C1541.18982422 2398.66742187 1541.18982422 2398.66742187 1540.36328125 2398.328125 C1537.2291918 2396.56681853 1534.77955601 2394.20591174 1532.1875 2391.75 C1531.12465328 2390.75548842 1530.06085545 2389.7619923 1528.99609375 2388.76953125 C1528.4841748 2388.29209473 1527.97225586 2387.8146582 1527.44482422 2387.32275391 C1525.59737044 2385.63138781 1523.68267189 2384.03027458 1521.75 2382.4375 C1520.8425 2381.633125 1519.935 2380.82875 1519 2380 C1519 2379.34 1519 2378.68 1519 2378 C1518.42765625 2377.7421875 1517.8553125 2377.484375 1517.265625 2377.21875 C1514.78871005 2375.88634058 1512.8658834 2374.34943882 1510.75 2372.5 C1510.04359375 2371.8915625 1509.3371875 2371.283125 1508.609375 2370.65625 C1507 2369 1507 2369 1507 2367 C1506.42765625 2366.7421875 1505.8553125 2366.484375 1505.265625 2366.21875 C1502.78871005 2364.88634058 1500.8658834 2363.34943882 1498.75 2361.5 C1498.04359375 2360.8915625 1497.3371875 2360.283125 1496.609375 2359.65625 C1495 2358 1495 2358 1495 2356 C1494.42765625 2355.7421875 1493.8553125 2355.484375 1493.265625 2355.21875 C1490.78871005 2353.88634058 1488.8658834 2352.34943882 1486.75 2350.5 C1486.04359375 2349.8915625 1485.3371875 2349.283125 1484.609375 2348.65625 C1483 2347 1483 2347 1483 2345 C1482.42765625 2344.7421875 1481.8553125 2344.484375 1481.265625 2344.21875 C1478.78871005 2342.88634058 1476.8658834 2341.34943882 1474.75 2339.5 C1474.04359375 2338.8915625 1473.3371875 2338.283125 1472.609375 2337.65625 C1471 2336 1471 2336 1471 2334 C1470.41734375 2333.731875 1469.8346875 2333.46375 1469.234375 2333.1875 C1466.97213399 2331.98519009 1465.19423682 2330.66174087 1463.25 2329 C1462.63640625 2328.484375 1462.0228125 2327.96875 1461.390625 2327.4375 C1460 2326 1460 2326 1460 2324 C1459.443125 2323.7525 1458.88625 2323.505 1458.3125 2323.25 C1452.51213586 2320.11466803 1448.18612482 2315.21822127 1443.60546875 2310.5703125 C1439.22467357 2306.13997683 1434.80273334 2301.84227931 1430.07421875 2297.78515625 C1425.06073923 2293.47035373 1420.05906736 2289.10928852 1415.4375 2284.375 C1413.19932262 2282.19421179 1410.92560009 2280.38223156 1408.4375 2278.5 C1405.05469549 2275.92394985 1402.6466346 2273.32963707 1400 2270 C1398.68766513 2268.97259796 1397.35185116 2267.97482112 1396 2267 C1392.71401509 2264.62611752 1390.50169013 2262.20529048 1388 2259 C1386.19499946 2257.32618998 1384.32775568 2255.7367261 1382.45703125 2254.13671875 C1379.49983179 2251.56503654 1376.62385771 2248.91404067 1373.75 2246.25 C1373.19473633 2245.73655029 1372.63947266 2245.22310059 1372.06738281 2244.6940918 C1369.32274897 2242.15526599 1366.58292506 2239.61140983 1363.84765625 2237.0625 C1358.46794099 2232.0690119 1353.0165271 2227.28583884 1347.15625 2222.8515625 C1344.74960804 2220.78498951 1342.97833639 2218.47292049 1341 2216 C1339.0399719 2214.36323743 1339.0399719 2214.36323743 1337 2213 C1333.71236231 2210.63096696 1331.5350642 2208.16883025 1329 2205 C1327.68795324 2203.97223004 1326.35217997 2202.97436498 1325 2202 C1321.71401509 2199.62611752 1319.50169013 2197.20529048 1317 2194 C1315.19499946 2192.32618998 1313.32775568 2190.7367261 1311.45703125 2189.13671875 C1308.49983179 2186.56503654 1305.62385771 2183.91404067 1302.75 2181.25 C1302.19473633 2180.73655029 1301.63947266 2180.22310059 1301.06738281 2179.6940918 C1298.32274897 2177.15526599 1295.58292506 2174.61140983 1292.84765625 2172.0625 C1287.46794099 2167.0690119 1282.0165271 2162.28583884 1276.15625 2157.8515625 C1273.74960804 2155.78498951 1271.97833639 2153.47292049 1270 2151 C1268.0399719 2149.36323743 1268.0399719 2149.36323743 1266 2148 C1262.71236231 2145.63096696 1260.5350642 2143.16883025 1258 2140 C1256.68795324 2138.97223004 1255.35217997 2137.97436498 1254 2137 C1250.71401509 2134.62611752 1248.50169013 2132.20529048 1246 2129 C1244.19499946 2127.32618998 1242.32775568 2125.7367261 1240.45703125 2124.13671875 C1237.49984322 2121.56504649 1234.62360875 2118.91429546 1231.75 2116.25 C1230.62110033 2115.20441998 1229.49219403 2114.15884712 1228.36328125 2113.11328125 C1227.52144287 2112.33331787 1227.52144287 2112.33331787 1226.66259766 2111.53759766 C1223.60317296 2108.70819138 1220.53019754 2105.89358321 1217.45458984 2103.08178711 C1214.93820744 2100.78056162 1212.42920796 2098.47218618 1209.93359375 2096.1484375 C1204.52452072 2091.12652573 1199.04927009 2086.31061437 1193.15625 2081.8515625 C1190.74960804 2079.78498951 1188.97833639 2077.47292049 1187 2075 C1185.0399719 2073.36323743 1185.0399719 2073.36323743 1183 2072 C1179.71236231 2069.63096696 1177.5350642 2067.16883025 1175 2064 C1173.07906087 2062.46651144 1171.11129633 2061.03414773 1169.09765625 2059.625 C1166.50119547 2057.61358904 1164.28999934 2055.35322018 1162 2053 C1156.93402642 2047.85964834 1151.88120468 2042.79645522 1146.390625 2038.109375 C1143.03935247 2035.15236983 1139.8116976 2032.06828726 1136.5625 2029 C1131.79355783 2024.50234143 1126.97702658 2020.29030787 1121.7109375 2016.375 C1119.42612068 2014.53880018 1117.81934081 2012.28884812 1116 2010 C1113.9969457 2008.43184684 1111.93873017 2006.95584968 1109.875 2005.46875 C1107.49889938 2003.60747118 1105.88177096 2001.3522137 1104 1999 C1102.07906087 1997.46651144 1100.11129633 1996.03414773 1098.09765625 1994.625 C1095.50119547 1992.61358904 1093.28999934 1990.35322018 1091 1988 C1085.93402642 1982.85964834 1080.88120468 1977.79645522 1075.390625 1973.109375 C1072.03935247 1970.15236983 1068.8116976 1967.06828726 1065.5625 1964 C1060.79355783 1959.50234143 1055.97702658 1955.29030787 1050.7109375 1951.375 C1048.42612068 1949.53880018 1046.81934081 1947.28884812 1045 1945 C1043.68766513 1943.97259796 1042.35185116 1942.97482112 1041 1942 C1037.71401509 1939.62611752 1035.50169013 1937.20529048 1033 1934 C1031.19499946 1932.32618998 1029.32775568 1930.7367261 1027.45703125 1929.13671875 C1024.49984322 1926.56504649 1021.62360875 1923.91429546 1018.75 1921.25 C1017.62110033 1920.20441998 1016.49219403 1919.15884712 1015.36328125 1918.11328125 C1014.80205566 1917.59330566 1014.24083008 1917.07333008 1013.66259766 1916.53759766 C1011.09486824 1914.16291926 1008.5168718 1911.79951855 1005.9375 1909.4375 C1005.44668945 1908.98793945 1004.95587891 1908.53837891 1004.45019531 1908.07519531 C1003.46148718 1907.16969207 1002.47271783 1906.26425566 1001.48388672 1905.35888672 C998.98835593 1903.07357504 996.49425473 1900.7867042 994 1898.5 C993.00000675 1897.58332596 992.00000676 1896.6666593 991 1895.75 C961 1868.25 961 1868.25 959.49951172 1866.87451172 C958.50119339 1865.95941367 957.50282114 1865.04437445 956.50439453 1864.12939453 C953.9782158 1861.81421148 951.45303168 1859.4979599 948.9296875 1857.1796875 C944.32650235 1852.95233249 939.71586224 1848.73473917 935.0625 1844.5625 C930.09487617 1840.10356085 925.19316748 1835.57561669 920.29296875 1831.04296875 C917.18217159 1828.16605238 914.06201655 1825.29950383 910.9375 1822.4375 C910.44652832 1821.98777832 909.95555664 1821.53805664 909.44970703 1821.07470703 C908.46115485 1820.16937398 907.47254823 1819.26410037 906.48388672 1818.35888672 C903.98835593 1816.07357504 901.49425473 1813.7867042 899 1811.5 C898.00000675 1810.58332596 897.00000676 1809.6666593 896 1808.75 C890.00000001 1803.25000001 890.00000001 1803.25000001 888.49951172 1801.87451172 C887.50119339 1800.95941367 886.50282114 1800.04437445 885.50439453 1799.12939453 C882.9782158 1796.81421148 880.45303168 1794.4979599 877.9296875 1792.1796875 C873.32650235 1787.95233249 868.71586224 1783.73473917 864.0625 1779.5625 C859.09487617 1775.10356085 854.19316748 1770.57561669 849.29296875 1766.04296875 C846.18217159 1763.16605238 843.06201655 1760.29950383 839.9375 1757.4375 C839.44652832 1756.98777832 838.95555664 1756.53805664 838.44970703 1756.07470703 C837.46115485 1755.16937398 836.47254823 1754.26410037 835.48388672 1753.35888672 C832.98835593 1751.07357504 830.49425473 1748.7867042 828 1746.5 C827.00000675 1745.58332596 826.00000676 1744.6666593 825 1743.75 C819.00000001 1738.25000001 819.00000001 1738.25000001 817.49951172 1736.87451172 C816.50119339 1735.95941367 815.50282114 1735.04437445 814.50439453 1734.12939453 C811.9782158 1731.81421148 809.45303168 1729.4979599 806.9296875 1727.1796875 C802.32650235 1722.95233249 797.71586224 1718.73473917 793.0625 1714.5625 C788.09487617 1710.10356085 783.19316748 1705.57561669 778.29296875 1701.04296875 C775.18217159 1698.16605238 772.06201655 1695.29950383 768.9375 1692.4375 C768.44652832 1691.98777832 767.95555664 1691.53805664 767.44970703 1691.07470703 C766.46115485 1690.16937398 765.47254823 1689.26410037 764.48388672 1688.35888672 C761.98835593 1686.07357504 759.49425473 1683.7867042 757 1681.5 C756.00000675 1680.58332596 755.00000676 1679.6666593 754 1678.75 C748 1673.25 748 1673.25 746.49951172 1671.87451172 C745.50119339 1670.95941367 744.50282114 1670.04437445 743.50439453 1669.12939453 C740.9782158 1666.81421148 738.45303168 1664.4979599 735.9296875 1662.1796875 C731.32650235 1657.95233249 726.71586224 1653.73473917 722.0625 1649.5625 C717.09487617 1645.10356085 712.19316748 1640.57561669 707.29296875 1636.04296875 C704.18217159 1633.16605238 701.06201655 1630.29950383 697.9375 1627.4375 C697.44652832 1626.98777832 696.95555664 1626.53805664 696.44970703 1626.07470703 C695.46115485 1625.16937398 694.47254823 1624.26410037 693.48388672 1623.35888672 C690.98835593 1621.07357504 688.49425473 1618.7867042 686 1616.5 C685.00000675 1615.58332596 684.00000676 1614.6666593 683 1613.75 C676.99999998 1608.24999999 676.99999998 1608.24999999 675.49951172 1606.87451172 C674.50119339 1605.95941367 673.50282114 1605.04437445 672.50439453 1604.12939453 C669.9782158 1601.81421148 667.45303168 1599.4979599 664.9296875 1597.1796875 C660.32650235 1592.95233249 655.71586224 1588.73473917 651.0625 1584.5625 C647.22083508 1581.11422156 643.41538624 1577.62936151 639.625 1574.125 C638.8060022 1573.3678772 638.8060022 1573.3678772 637.97045898 1572.59545898 C636.86439305 1571.57278368 635.75835467 1570.55007856 634.65234375 1569.52734375 C631.97949503 1567.05669635 629.30402343 1564.58895051 626.625 1562.125 C625.70976562 1561.28195312 624.79453125 1560.43890625 623.8515625 1559.5703125 C620.61852817 1556.65615279 617.30471508 1553.83261293 614 1551 C613.67 2051.94 613.34 2552.88 613 3069 C410.71 3069 208.42 3069 0 3069 C0 2056.23 0 1043.46 0 0 Z " fill="#FEFEFE" transform="translate(4263,10)"/>
<path d="M0 0 C1493.33857447 0 1493.33857447 0 1521.625 2.25 C1522.43431976 2.31246918 1523.24363953 2.37493835 1524.07748413 2.43930054 C1565.85453817 5.69785555 1607.29511978 12.02668832 1648 22 C1648.65063416 22.15815186 1649.30126831 22.31630371 1649.97161865 22.47924805 C1714.1188575 38.09386792 1776.56558313 62.38386182 1834 95 C1835.06847168 95.60231445 1836.13694336 96.20462891 1837.23779297 96.82519531 C1857.46635325 108.27445051 1876.82119889 120.87828886 1896 134 C1896.91265625 134.62277832 1897.8253125 135.24555664 1898.765625 135.88720703 C1910.83375143 144.15657098 1922.42526766 153.05868489 1934 162 C1935.02383789 162.78769775 1935.02383789 162.78769775 1936.06835938 163.59130859 C1943.20900816 169.09108808 1950.15920907 174.76503494 1956.96923828 180.66992188 C1960.35971521 183.60890552 1963.79865811 186.458035 1967.3125 189.25 C1973.08517824 193.92638327 1978.44059169 199.02474552 1983.81176758 204.15332031 C1984.83886841 205.13316895 1984.83886841 205.13316895 1985.88671875 206.1328125 C1986.48701904 206.70918457 1987.08731934 207.28555664 1987.70581055 207.87939453 C1989.65909778 209.68489128 1991.64728985 211.42160705 1993.66308594 213.15600586 C1998.48163493 217.35850039 2002.98989693 221.84612274 2007.50390625 226.37109375 C2008.3860228 227.25225357 2009.26813934 228.13341339 2010.17698669 229.04127502 C2012.50232809 231.3657675 2014.82523618 233.69265907 2017.14733887 236.02038574 C2018.56144824 237.43644678 2019.97749121 238.85054321 2021.39428711 240.26391602 C2024.1418672 243.00528256 2026.88592106 245.75013034 2029.62890625 248.49609375 C2030.46450577 249.32966904 2031.30010529 250.16324432 2032.161026 251.02207947 C2036.4276416 255.30562276 2040.55235179 259.65305015 2044.4846344 264.246521 C2047.024557 267.18554835 2049.70990122 269.98746265 2052.375 272.8125 C2057.09747432 277.85431643 2061.5665215 283.02364567 2065.88671875 288.41796875 C2068.03619026 291.04421768 2070.27460088 293.55633453 2072.5625 296.0625 C2076.13765575 299.99517133 2079.50891266 304.03235465 2082.796875 308.20703125 C2084.39843157 310.23737335 2086.01117784 312.2540487 2087.640625 314.26171875 C2109.89961947 341.74205253 2131.34012287 370.66661627 2149.71337891 400.89794922 C2151.1505139 403.24590601 2152.61080035 405.57849392 2154.07421875 407.91015625 C2166.14729677 427.18127048 2177.25170519 446.96411118 2188 467 C2188.76715332 468.42143311 2188.76715332 468.42143311 2189.54980469 469.87158203 C2222.78449828 531.65083956 2246.60200322 598.25761833 2264.63671875 665.90234375 C2264.84757111 666.69129028 2265.05842346 667.48023682 2265.27566528 668.29309082 C2265.86485844 670.52537635 2266.43840317 672.76061837 2267 675 C2267.29241074 676.16536789 2267.29241074 676.16536789 2267.59072876 677.35427856 C2268.61640682 681.66217138 2269.22889844 685.53648042 2269 690 C2268.3872522 690.09498779 2267.77450439 690.18997559 2267.14318848 690.2878418 C2181.021015 703.66195933 2096.72634781 722.62257102 2014.96575928 753.26391602 C2012.95558186 754.01663249 2010.94397936 754.76543969 2008.93212891 755.51367188 C1960.77931145 773.45198857 1913.56523831 794.35694776 1868.46875 819.0234375 C1863.57157017 821.69985815 1858.63698642 824.297044 1853.6875 826.875 C1842.2310388 832.87594949 1831.06257831 839.29986937 1820 846 C1818.3960442 846.95868622 1816.79187278 847.91701176 1815.1875 848.875 C1806.45474635 854.11738973 1797.78692557 859.46186001 1789.2109375 864.95703125 C1786.64042169 866.59252975 1784.06183209 868.21228347 1781.4765625 869.82421875 C1773.65836494 874.70894355 1765.93791982 879.60291301 1758.55078125 885.12890625 C1754.70704698 887.94842955 1750.7228146 890.54695844 1746.7421875 893.16796875 C1744.40806537 894.72737513 1742.13461244 896.33576262 1739.875 898 C1737 900 1737 900 1735 900 C1735 900.66 1735 901.32 1735 902 C1731.50344613 904.6020866 1728.10839064 906.54997977 1724 908 C1724 908.66 1724 909.32 1724 910 C1722.68 910.33 1721.36 910.66 1720 911 C1720 911.66 1720 912.32 1720 913 C1718.13671875 914.47265625 1718.13671875 914.47265625 1715.6875 916.0625 C1714.88699219 916.58972656 1714.08648438 917.11695313 1713.26171875 917.66015625 C1711 919 1711 919 1708 920 C1708 920.66 1708 921.32 1708 922 C1706.68 922.33 1705.36 922.66 1704 923 C1704 923.66 1704 924.32 1704 925 C1701.03812728 927.17204 1698.49314009 928.83561997 1695 930 C1695 930.66 1695 931.32 1695 932 C1693.68 932.33 1692.36 932.66 1691 933 C1690.93006836 932.09572266 1690.86013672 931.19144531 1690.78808594 930.25976562 C1686.72124218 878.65923356 1676.57331016 823.97527944 1644.234375 781.69140625 C1643 780 1643 780 1643 778 C1642.34 778 1641.68 778 1641 778 C1637 772.58823529 1637 772.58823529 1637 770 C1636.34 770 1635.68 770 1635 770 C1634.03693859 768.60207606 1633.08196134 767.19775634 1632.17285156 765.76416016 C1630.14418728 762.712718 1627.75003772 759.97213647 1625.375 757.1875 C1624.88515625 756.60291016 1624.3953125 756.01832031 1623.890625 755.41601562 C1621.31461244 752.26616471 1621.31461244 752.26616471 1618 750 C1617.55011719 749.24460937 1617.10023437 748.48921875 1616.63671875 747.7109375 C1597.04208432 715.25586281 1545.59209436 692.1239968 1511 683 C1504.05511246 681.29953005 1497.08373893 679.96041358 1490 679 C1488.78159353 678.83342695 1487.56318706 678.6668539 1486.30785918 678.49523318 C1470.05584243 676.49073917 1453.74601348 676.70595668 1437.40214038 676.72052841 C1432.96848317 676.72225128 1428.53484838 676.71234215 1424.10120082 676.70397437 C1416.34776682 676.69091143 1408.59435453 676.68512016 1400.84090996 676.68421364 C1389.31199934 676.68283214 1377.78312078 676.67001585 1366.25422096 676.6549259 C1346.85658983 676.62985716 1327.45896143 676.61395868 1308.06131744 676.60334396 C1288.86400009 676.59280869 1269.66669306 676.57816237 1250.46938324 676.55806351 C1249.27434076 676.55681464 1248.07929828 676.55556577 1246.8480424 676.55427906 C1240.77866275 676.54791503 1234.70928318 676.54147792 1228.63990363 676.53501268 C1185.68588515 676.48938842 1142.73186332 676.45292433 1099.77783203 676.421875 C1058.05679838 676.39169591 1016.3357716 676.35731691 974.61474609 676.31738281 C971.98975098 676.31487611 969.36475587 676.31236954 966.73976076 676.30986309 C945.40949 676.28947369 924.07921953 676.26879501 902.74894913 676.24804622 C804.16597427 676.15235912 705.58299389 676.07780497 607 676 C607 846.94 607 1017.88 607 1194 C883.87 1194 1160.74 1194 1446 1194 C1445.10257185 1197.5897126 1444.41273186 1199.17147099 1442.40234375 1202.10546875 C1441.85682861 1202.91024658 1441.31131348 1203.71502441 1440.74926758 1204.54418945 C1440.15138428 1205.41648193 1439.55350098 1206.28877441 1438.9375 1207.1875 C1437.64667823 1209.10037651 1436.35768676 1211.01448911 1435.0703125 1212.9296875 C1434.39774414 1213.92967773 1433.72517578 1214.92966797 1433.03222656 1215.95996094 C1395.30200216 1272.40118562 1362.95849712 1332.70053474 1335.90234375 1394.9296875 C1335.05250213 1396.87954056 1334.19757617 1398.82704471 1333.33984375 1400.7734375 C1320.05796193 1430.93229698 1308.62680362 1461.81611609 1298 1493 C1297.65225525 1494.02006134 1297.65225525 1494.02006134 1297.29748535 1495.06072998 C1268.6277342 1579.39552492 1250.55452273 1667.53157685 1238.34375 1800.14453125 C1238.30084839 1800.84567551 1238.25794678 1801.54681976 1238.21374512 1802.26921082 C1236.94920612 1824.16575843 1236.56221411 1846.07364961 1236 1868 C1028.43 1868 820.86 1868 607 1868 C607 2262.02 607 2656.04 607 3062 C406.69 3062 206.38 3062 0 3062 C0 2051.54 0 1041.08 0 0 Z " fill="#FEFEFE" transform="translate(9,10)"/>
<path d="M0 0 C847.44 0 1694.88 0 2568 0 C2568 224.07 2568 448.14 2568 679 C2245.92 679 1923.84 679 1592 679 C1592 1469.68 1592 2260.36 1592 3075 C1389.38 3075 1186.76 3075 978 3075 C978 2284.32 978 1493.64 978 679 C655.26 679 332.52 679 0 679 C0 454.93 0 230.86 0 0 Z " fill="#FEFEFE" transform="translate(5624,10)"/>
<path d="M0 0 C233.31 0 466.62 0 707 0 C707 1012.77 707 2025.54 707 3069 C136.43 3069 -434.14 3069 -1022 3069 C-1022 3068.67 -1022 3068.34 -1022 3068 C-1012.13646416 3067.25434927 -1002.30797653 3066.82283342 -992.4203186 3066.61157227 C-978.86983637 3066.31376354 -965.34338878 3065.78671552 -951.8125 3065 C-950.69275284 3064.93717331 -950.69275284 3064.93717331 -949.55038452 3064.87307739 C-947.45638709 3064.7543059 -945.36294363 3064.62862974 -943.26953125 3064.5 C-941.48446167 3064.39171875 -941.48446167 3064.39171875 -939.66333008 3064.28125 C-937.08122278 3064.29086898 -937.08122278 3064.29086898 -936 3063 C-933.36867639 3062.69545848 -930.75262517 3062.44980864 -928.11328125 3062.23828125 C-926.39627451 3062.09128809 -924.67931715 3061.94371733 -922.96240234 3061.7956543 C-922.044328 3061.71761566 -921.12625366 3061.63957703 -920.18035889 3061.55917358 C-836.99706362 3054.40431612 -754.56414201 3038.38560694 -675 3013 C-674.14726501 3012.72800781 -673.29453003 3012.45601562 -672.41595459 3012.17578125 C-613.11694315 2993.20671471 -555.96929261 2969.54685763 -500.25 2941.8125 C-499.25891235 2941.32097443 -498.26782471 2940.82944885 -497.2467041 2940.32302856 C-483.48281552 2933.48355835 -470.03448755 2926.20273504 -456.70822144 2918.54698181 C-452.88488504 2916.36302751 -449.0414047 2914.21571774 -445.19638062 2912.07023621 C-426.71158473 2901.73408564 -408.66645628 2890.67712207 -391 2879 C-389.49928955 2878.0097583 -389.49928955 2878.0097583 -387.96826172 2876.99951172 C-362.01870997 2859.85393099 -336.52878592 2842.13988598 -312 2823 C-311.18402344 2822.36529785 -311.18402344 2822.36529785 -310.3515625 2821.71777344 C-301.40482353 2814.75519029 -292.58348802 2807.64438554 -283.80419922 2800.47216797 C-282.21726954 2799.17728489 -280.62651263 2797.88709522 -279.03515625 2796.59765625 C-268.86143126 2788.33617326 -258.91925485 2779.80789338 -249.21484375 2771 C-247.22587498 2769.20396471 -245.21436806 2767.44046697 -243.1875 2765.6875 C-238.04930285 2761.20963341 -233.06636356 2756.5605509 -228.07739258 2751.91796875 C-226.54143231 2750.49988157 -224.99543986 2749.09264298 -223.4440918 2747.69140625 C-213.34803209 2738.53689014 -203.72083032 2728.90831282 -194.0871582 2719.27246094 C-191.6642569 2716.84945741 -189.23449854 2714.43345543 -186.80300426 2712.01907921 C-184.44093678 2709.67091932 -182.08618414 2707.31546966 -179.73046875 2704.9609375 C-178.87196823 2704.1096225 -178.01346771 2703.2583075 -177.12895203 2702.38119507 C-172.3396099 2697.57384668 -167.98179895 2692.64973385 -163.89619446 2687.22793579 C-161.81373877 2684.78115216 -159.54390133 2682.95228078 -157 2681 C-155.8810413 2679.82458008 -154.79566854 2678.61607125 -153.75 2677.375 C-151.09204671 2674.2625482 -148.38400836 2671.21087327 -145.625 2668.1875 C-141.67678011 2663.81769053 -137.95331934 2659.29958847 -134.25390625 2654.71875 C-132.05583295 2652.06734789 -129.77236652 2649.53110744 -127.4375 2647 C-123.5112409 2642.70372695 -120.14084641 2638.15234651 -116.78125 2633.40625 C-114.75210006 2630.66511762 -112.44185281 2628.37402356 -110 2626 C-109.278125 2624.906875 -108.55625 2623.81375 -107.8125 2622.6875 C-107.214375 2621.800625 -106.61625 2620.91375 -106 2620 C-105.34 2620 -104.68 2620 -104 2620 C-103.73316406 2619.42507812 -103.46632813 2618.85015625 -103.19140625 2618.2578125 C-101.95935505 2615.92297449 -100.55161725 2613.96105816 -98.9375 2611.875 C-96.76773805 2609.06372737 -96.76773805 2609.06372737 -95 2606 C-94.34 2606 -93.68 2606 -93 2606 C-92.731875 2605.443125 -92.46375 2604.88625 -92.1875 2604.3125 C-90.89100504 2601.78774666 -89.57523677 2599.36285516 -88 2597 C-87.34 2597 -86.68 2597 -86 2597 C-85.67 2595.68 -85.34 2594.36 -85 2593 C-84.34 2593 -83.68 2593 -83 2593 C-82.67 2591.68 -82.34 2590.36 -82 2589 C-81.34 2589 -80.68 2589 -80 2589 C-79.67 2587.68 -79.34 2586.36 -79 2585 C-78.34 2585 -77.68 2585 -77 2585 C-76.67 2583.68 -76.34 2582.36 -76 2581 C-75.34 2581 -74.68 2581 -74 2581 C-73.7525 2580.29875 -73.505 2579.5975 -73.25 2578.875 C-71.82819762 2575.60485452 -70.12753712 2572.858878 -68 2570 C-67.34 2570 -66.68 2570 -66 2570 C-65.690625 2569.21625 -65.38125 2568.4325 -65.0625 2567.625 C-64 2565 -64 2565 -63 2563 C-62.34 2563 -61.68 2563 -61 2563 C-60.731875 2562.278125 -60.46375 2561.55625 -60.1875 2560.8125 C-59.00098638 2558.00233617 -57.72514361 2555.51583443 -56 2553 C-55.34 2553 -54.68 2553 -54 2553 C-53.74871338 2552.29673584 -53.49742676 2551.59347168 -53.23852539 2550.86889648 C-51.85413933 2547.66213114 -50.1390751 2544.99197065 -48.18359375 2542.09765625 C-47.62464165 2541.26552361 -47.62464165 2541.26552361 -47.05439758 2540.4165802 C-46.26145621 2539.23704218 -45.46645706 2538.05888527 -44.66955566 2536.88201904 C-42.60801589 2533.83750491 -40.56096772 2530.78326277 -38.51171875 2527.73046875 C-37.91358871 2526.84086456 -37.91358871 2526.84086456 -37.30337524 2525.93328857 C-33.706003 2520.57793763 -30.20684337 2515.16675945 -26.74609375 2509.72265625 C-25.14231656 2507.22191195 -23.48871881 2504.76498299 -21.8125 2502.3125 C-19.16593905 2498.37158274 -16.93336544 2494.26910451 -14.6953125 2490.0859375 C-10.23602756 2481.96880593 -5.37096683 2474.06806972 -0.3125 2466.3125 C2.71758723 2461.60604507 5.22075311 2456.73706024 7.66796875 2451.70703125 C9.3079662 2448.3741332 11.13180506 2445.21096006 13 2442 C13.92036419 2440.31451378 14.83661194 2438.62677685 15.75 2436.9375 C17.38082917 2433.92392291 19.03572666 2430.93946097 20.77734375 2427.98828125 C26.00323042 2419.12885374 30.4455833 2409.98923623 34.828125 2400.6875 C37.088499 2395.89539165 39.39588022 2391.12923835 41.734375 2386.375 C55.84945742 2357.64839839 69.01589569 2328.50111213 80.41969776 2298.58036443 C81.84579717 2294.846566 83.35507806 2291.18955569 85.03871155 2287.5641142 C91.69834406 2272.66074699 92.12613022 2258.99969384 92 2242.86597729 C92.00318794 2240.0513777 92.01845356 2237.23687064 92.03308827 2234.42231038 C92.05851656 2228.31446646 92.05463813 2222.20720273 92.03102028 2216.09935959 C91.99582664 2206.95614391 92.00732561 2197.81337834 92.02755144 2188.67013822 C92.0606991 2173.08352551 92.05621779 2157.49712945 92.03101921 2141.91051102 C92.00565326 2126.12429363 91.99782674 2110.33821081 92.01126289 2094.55197716 C92.01210237 2093.55351141 92.01294185 2092.55504566 92.01380677 2091.52632337 C92.018168 2086.43480525 92.02281329 2081.34328743 92.02755889 2076.25176966 C92.06129458 2039.43419804 92.05644512 2002.61671299 92.03103638 1965.79913902 C92.00599218 1929.34534744 91.99752108 1892.89161315 92.01119995 1856.43781471 C92.01182622 1854.73875058 92.01182622 1854.73875058 92.01246514 1853.00536191 C92.01628733 1842.65958967 92.02031333 1832.31381751 92.02458382 1821.96804545 C92.0351966 1796.25125167 92.04325392 1770.53445743 92.04957581 1744.81766224 C92.04986572 1743.6466617 92.05015564 1742.47566116 92.05045434 1741.26917575 C92.06432904 1684.32649928 92.0487585 1627.38383593 92.03076172 1570.44116211 C92.02453393 1550.6843059 92.01843644 1530.92744967 92.01287842 1511.17059326 C92.01253357 1509.9452473 92.01218872 1508.71990133 92.01183343 1507.45742367 C91.99597844 1450.48508001 92.00113719 1393.51274396 92.01153174 1336.54039977 C92.01220865 1332.81214651 92.01287174 1329.08389326 92.01353027 1325.35564 C92.02039956 1286.50108126 92.02827824 1247.64652273 92.03659472 1208.79196428 C92.03683225 1207.68187861 92.03706978 1206.57179294 92.03731451 1205.42806832 C92.03774735 1203.40822351 92.03818131 1201.38837871 92.03861701 1199.36853391 C92.07898257 1011.24566345 92.03292207 823.12289872 92 635 C-168.37 635 -428.74 635 -697 635 C-697 634.34 -697 633.68 -697 633 C-695.3623728 631.54597658 -693.66265804 630.16151322 -691.9375 628.8125 C-687.92810893 625.60806341 -684.2214669 622.34699882 -680.65625 618.6640625 C-678.31448667 616.31125312 -675.80542739 614.1752333 -673.29296875 612.0078125 C-670.53094206 609.58927465 -667.82598859 607.11112266 -665.125 604.625 C-661.43460926 601.22949427 -657.73294545 597.84884817 -654 594.5 C-650.31169568 591.18998331 -646.64929525 587.85290579 -643 584.5 C-638.54664513 580.40833893 -634.06340146 576.35177054 -629.5625 572.3125 C-626.69399484 569.723849 -623.84534364 567.11402958 -621 564.5 C-606.55292763 551.2364318 -606.55292763 551.2364318 -601.6875 547.25 C-598.99655227 545.06435755 -598.99655227 545.06435755 -596.6953125 542.6953125 C-593.92715306 539.92715306 -591.07879445 537.26264759 -588.1875 534.625 C-587.65761475 534.14023193 -587.12772949 533.65546387 -586.58178711 533.15600586 C-583.77041261 530.5909206 -580.9396097 528.05395457 -578.0625 525.5625 C-574.51597786 522.48786438 -571.06809063 519.3142222 -567.625 516.125 C-553.22897367 502.79288324 -553.22897367 502.79288324 -547.6875 498.25 C-544.96125413 496.03480562 -544.96125413 496.03480562 -542.5 493.5 C-539.80512611 490.80512611 -536.92674871 488.43895726 -534 486 C-533.175 485.175 -532.35 484.35 -531.5 483.5 C-528.80512611 480.80512611 -525.92674871 478.43895726 -523 476 C-522.175 475.175 -521.35 474.35 -520.5 473.5 C-517.80512611 470.80512611 -514.92674871 468.43895726 -512 466 C-511.175 465.175 -510.35 464.35 -509.5 463.5 C-506.80512611 460.80512611 -503.92674871 458.43895726 -501 456 C-500.2575 455.2575 -499.515 454.515 -498.75 453.75 C-495.54452828 450.54452828 -492.18669035 447.54515244 -488.80859375 444.5234375 C-485.853833 441.86867333 -482.92408557 439.1884158 -480 436.5 C-475.55356361 432.41439083 -471.07795126 428.36310654 -466.58203125 424.33203125 C-464.67454929 422.60923741 -462.77665505 420.87856086 -460.88671875 419.13671875 C-460.35498047 418.646875 -459.82324219 418.15703125 -459.27539062 417.65234375 C-457.76950845 416.26315355 -456.2655574 414.87187087 -454.76171875 413.48046875 C-452.2421374 411.21747843 -449.64864673 409.10810658 -447 407 C-446.195625 406.195625 -445.39125 405.39125 -444.5625 404.5625 C-441.84559324 401.84559324 -438.95058343 399.45881953 -436 397 C-435.175 396.175 -434.35 395.35 -433.5 394.5 C-430.80512611 391.80512611 -427.92674871 389.43895726 -425 387 C-424.175 386.175 -423.35 385.35 -422.5 384.5 C-419.80512611 381.80512611 -416.92674871 379.43895726 -414 377 C-413.2575 376.2575 -412.515 375.515 -411.75 374.75 C-408.54452828 371.54452828 -405.18669035 368.54515244 -401.80859375 365.5234375 C-398.85382586 362.86866691 -395.9244739 360.18800112 -393 357.5 C-391.98969845 356.57409312 -390.97928243 355.64831114 -389.96875 354.72265625 C-388.02673937 352.9435362 -386.09024888 351.15898008 -384.15625 349.37109375 C-383.2796875 348.56800781 -382.403125 347.76492188 -381.5 346.9375 C-380.7265625 346.22464844 -379.953125 345.51179688 -379.15625 344.77734375 C-377 343 -377 343 -374.84375 342.00390625 C-372.47431463 340.71376877 -372.12285088 339.40869624 -371 337 C-369.34375 335.296875 -369.34375 335.296875 -367.5 333.75 C-366.8915625 333.22921875 -366.283125 332.7084375 -365.65625 332.171875 C-364 331 -364 331 -362 331 C-361.7421875 330.40703125 -361.484375 329.8140625 -361.21875 329.203125 C-359.90230105 326.82339035 -358.57419218 325.49021208 -356.5 323.75 C-355.8915625 323.22921875 -355.283125 322.7084375 -354.65625 322.171875 C-353 321 -353 321 -351 321 C-350.7421875 320.40703125 -350.484375 319.8140625 -350.21875 319.203125 C-348.90230105 316.82339035 -347.57419218 315.49021208 -345.5 313.75 C-344.8915625 313.22921875 -344.283125 312.7084375 -343.65625 312.171875 C-342 311 -342 311 -340 311 C-339.7421875 310.40703125 -339.484375 309.8140625 -339.21875 309.203125 C-337.90230105 306.82339035 -336.57419218 305.49021208 -334.5 303.75 C-333.8915625 303.22921875 -333.283125 302.7084375 -332.65625 302.171875 C-331 301 -331 301 -329 301 C-328.7421875 300.40703125 -328.484375 299.8140625 -328.21875 299.203125 C-326.90230105 296.82339035 -325.57419218 295.49021208 -323.5 293.75 C-322.8915625 293.22921875 -322.283125 292.7084375 -321.65625 292.171875 C-320 291 -320 291 -318 291 C-317.79375 290.443125 -317.5875 289.88625 -317.375 289.3125 C-315.42316968 286.02987629 -313.05769006 284.29326754 -310 282 C-309.34 282 -308.68 282 -308 282 C-307.7421875 281.40703125 -307.484375 280.8140625 -307.21875 280.203125 C-305.90230105 277.82339035 -304.57419218 276.49021208 -302.5 274.75 C-301.8915625 274.22921875 -301.283125 273.7084375 -300.65625 273.171875 C-299 272 -299 272 -297 272 C-296.7421875 271.40703125 -296.484375 270.8140625 -296.21875 270.203125 C-294.90230105 267.82339035 -293.57419218 266.49021208 -291.5 264.75 C-290.8915625 264.22921875 -290.283125 263.7084375 -289.65625 263.171875 C-288 262 -288 262 -286 262 C-285.7421875 261.40703125 -285.484375 260.8140625 -285.21875 260.203125 C-283.90230105 257.82339035 -282.57419218 256.49021208 -280.5 254.75 C-279.8915625 254.22921875 -279.283125 253.7084375 -278.65625 253.171875 C-277 252 -277 252 -275 252 C-274.64035156 251.13568359 -274.64035156 251.13568359 -274.2734375 250.25390625 C-272.74151671 247.54250044 -270.97926948 245.97558118 -268.625 243.9375 C-264.70793188 240.50018806 -260.83114859 237.03212911 -257 233.5 C-252.55283149 229.41247699 -248.07503126 225.36083448 -243.578125 221.328125 C-241.6841966 219.61785026 -239.7991359 217.90025771 -237.921875 216.171875 C-237.39464844 215.68654297 -236.86742188 215.20121094 -236.32421875 214.70117188 C-234.8347422 213.32811843 -233.34700563 211.95317818 -231.859375 210.578125 C-223.45454545 203 -223.45454545 203 -221 203 C-220.64035156 202.13568359 -220.64035156 202.13568359 -220.2734375 201.25390625 C-218.74151671 198.54250044 -216.97926948 196.97558118 -214.625 194.9375 C-210.70793188 191.50018806 -206.83114859 188.03212911 -203 184.5 C-198.54741915 180.40750235 -194.06339242 176.35176243 -189.5625 172.3125 C-186.69399591 169.72384997 -183.8452335 167.11414854 -181 164.5 C-176.54664513 160.40833893 -172.06340146 156.35177054 -167.5625 152.3125 C-164.69399591 149.72384997 -161.8452335 147.11414854 -159 144.5 C-154.54935153 140.41082552 -150.06921917 136.35630916 -145.5703125 132.3203125 C-142.65571553 129.68920217 -139.76460776 127.03347525 -136.875 124.375 C-133.63786909 121.3977736 -130.38862144 118.44047034 -127.0625 115.5625 C-122.930891 111.98062691 -118.93070073 108.26162042 -114.92041016 104.54541016 C-110.82306071 100.75112961 -106.68589227 97.00453553 -102.52734375 93.27734375 C-99.66917797 90.70190225 -96.83289739 88.10314236 -94 85.5 C-89.54667383 81.40830793 -85.06340112 77.35177023 -80.5625 73.3125 C-77.69399591 70.72384997 -74.8452335 68.11414854 -72 65.5 C-67.54935153 61.41082552 -63.06921917 57.35630916 -58.5703125 53.3203125 C-55.65571553 50.68920217 -52.76460776 48.03347525 -49.875 45.375 C-46.63786909 42.3977736 -43.38862144 39.44047034 -40.0625 36.5625 C-35.930891 32.98062691 -31.93070073 29.26162042 -27.92041016 25.54541016 C-23.83456876 21.76178644 -19.70914247 18.02556768 -15.5625 14.30859375 C-12.50607702 11.55501756 -9.46972056 8.78017313 -6.4375 6 C-5.91212646 5.51845459 -5.38675293 5.03690918 -4.84545898 4.54077148 C-2.39009276 2.30474302 -2.39009276 2.30474302 0 0 Z " fill="#EF8111" transform="translate(3456,10)"/>
<path d="M0 0 C0.97361481 0.00060425 1.94722961 0.0012085 2.9503479 0.00183105 C83.74263323 0.13670005 171.17849638 14.29285195 244.43359375 49.80078125 C246.75920183 50.92098596 249.09159119 51.98312234 251.453125 53.0234375 C287.62398814 69.02807815 322.04202384 88.31427666 354.3125 111.1875 C355.46419678 112.00130127 355.46419678 112.00130127 356.63916016 112.83154297 C370.32090189 122.52621301 383.50657954 132.6887829 396.24609375 143.58984375 C398.97020986 145.91402742 401.75919993 148.14673584 404.5625 150.375 C419.07909615 162.23126756 432.13862314 175.87737749 445.3125 189.17333984 C446.92460691 190.79686059 448.54522588 192.41064299 450.171875 194.01953125 C452.14149895 196.01431463 453.99156395 198.05734839 455.8125 200.1875 C457.75997527 202.4371697 459.70633539 204.58133539 461.8125 206.6875 C478.8125 223.6875 478.8125 223.6875 481.3125 231.1875 C481.9725 231.1875 482.6325 231.1875 483.3125 231.1875 C483.9725 232.8375 484.6325 234.4875 485.3125 236.1875 C485.9725 236.1875 486.6325 236.1875 487.3125 236.1875 C488.29792505 237.59404687 489.27442444 239.00812421 490.19335938 240.45898438 C492.70425665 244.33707179 495.66482022 247.92179913 498.484375 251.578125 C500.3125 254.1875 500.3125 254.1875 500.3125 256.1875 C500.9725 256.1875 501.6325 256.1875 502.3125 256.1875 C505.3125 260.57211538 505.3125 260.57211538 505.3125 263.1875 C505.9725 263.1875 506.6325 263.1875 507.3125 263.1875 C508.98032188 265.65923602 510.53639116 268.13018325 512.0625 270.6875 C515.1963122 275.83445693 518.37640598 280.78689342 522.0859375 285.54296875 C523.68552131 287.68763367 524.99124262 289.97721328 526.27734375 292.3203125 C527.42617902 294.39255121 528.6451428 296.41226507 529.875 298.4375 C537.10902302 310.47579784 544.20083896 322.53470985 550.3125 335.1875 C551.24146442 337.04232194 552.17767045 338.89339861 553.11376953 340.74462891 C554.86460934 344.21671924 556.58991852 347.7013232 558.3125 351.1875 C558.83650391 352.24420898 558.83650391 352.24420898 559.37109375 353.32226562 C590.51593402 416.46757365 608.62667508 486.28035556 615.625 556.1875 C615.74723938 557.40367004 615.74723938 557.40367004 615.87194824 558.64440918 C617.80434432 578.2068019 618.52227961 597.72190796 618.5 617.375 C618.49939575 618.37229126 618.4987915 619.36958252 618.49816895 620.39709473 C618.36543203 701.78424604 602.45277107 782.38469064 542.3125 917.1875 C541.95389893 917.83138672 541.59529785 918.47527344 541.22583008 919.13867188 C536.83696802 926.97553023 532.25932667 934.685067 527.49316406 942.29882812 C526.64357327 943.6578923 525.79691986 945.01879433 524.95214844 946.38085938 C518.97965697 956.00875532 512.87204096 965.45559956 506.17578125 974.59765625 C504.33265438 977.01441147 504.33265438 977.01441147 503.3125 979.1875 C502.6525 979.1875 501.9925 979.1875 501.3125 979.1875 C501.08691406 979.87457031 500.86132812 980.56164063 500.62890625 981.26953125 C498.9794943 984.92564617 496.74517533 987.75867777 494.25 990.875 C490.98691696 994.83679631 490.98691696 994.83679631 488.3125 999.1875 C487.6525 999.1875 486.9925 999.1875 486.3125 999.1875 C485.6525 1000.8375 484.9925 1002.4875 484.3125 1004.1875 C483.6525 1004.1875 482.9925 1004.1875 482.3125 1004.1875 C481.6525 1005.8375 480.9925 1007.4875 480.3125 1009.1875 C479.6525 1009.1875 478.9925 1009.1875 478.3125 1009.1875 C478.04050781 1009.76628906 477.76851562 1010.34507812 477.48828125 1010.94140625 C476.3159712 1013.18086898 475.0160543 1015.10492765 473.5 1017.125 C473.01917969 1017.77339844 472.53835938 1018.42179687 472.04296875 1019.08984375 C469.9514517 1021.625159 467.64669258 1023.87424188 465.3125 1026.1875 C463.63542604 1028.01131793 461.96883508 1029.84482722 460.3125 1031.6875 C457.89093962 1034.38148592 455.46598744 1037.03426132 452.90234375 1039.59375 C450.39596519 1042.10390892 447.99947529 1044.68542745 445.60522461 1047.30126953 C438.66773949 1054.86427363 431.39866443 1061.91546676 423.80029297 1068.80761719 C421.57527141 1070.87125714 419.45627039 1073.04006504 417.3125 1075.1875 C415.3125 1076.85416667 413.3125 1078.52083333 411.3125 1080.1875 C410.549375 1080.97125 409.78625 1081.755 409 1082.5625 C406.01429805 1085.47876702 402.83039449 1087.93923602 399.49609375 1090.44140625 C397.29763087 1092.12900985 397.29763087 1092.12900985 395.46875 1094.05859375 C392.62872651 1096.86260244 389.52879197 1099.24821306 386.375 1101.6875 C385.15740884 1102.63523267 383.93995846 1103.58314623 382.72265625 1104.53125 C382.14273926 1104.97984375 381.56282227 1105.4284375 380.96533203 1105.890625 C379.45365907 1107.07674121 377.97304306 1108.30216597 376.49609375 1109.53125 C374.3125 1111.1875 374.3125 1111.1875 372.3125 1111.1875 C372.3125 1111.8475 372.3125 1112.5075 372.3125 1113.1875 C370.9925 1113.5175 369.6725 1113.8475 368.3125 1114.1875 C368.3125 1114.8475 368.3125 1115.5075 368.3125 1116.1875 C366.33700367 1117.59098694 364.35806566 1118.89519614 362.3125 1120.1875 C360.26799488 1121.60006718 358.22642752 1123.01689386 356.1875 1124.4375 C346.37492068 1131.24904903 336.42146177 1137.82403817 326.3125 1144.1875 C325.02601818 1145.00386924 323.73956145 1145.82027802 322.453125 1146.63671875 C321.07309467 1147.50809447 319.69288683 1148.37918913 318.3125 1149.25 C317.6844043 1149.64944824 317.05630859 1150.04889648 316.40917969 1150.46044922 C286.11481636 1169.49708623 252.66821588 1184.46249671 219.3125 1197.1875 C217.57806641 1197.85096436 217.57806641 1197.85096436 215.80859375 1198.52783203 C168.81423907 1216.32606711 119.19917532 1227.58245863 69.3125 1233.1875 C68.64913635 1233.2637561 67.98577271 1233.34001221 67.30230713 1233.4185791 C22.62549498 1238.5176437 -24.03003392 1238.43261895 -68.6875 1233.1875 C-69.79149139 1233.06021515 -69.79149139 1233.06021515 -70.91778564 1232.93035889 C-129.96975173 1226.08064253 -188.28572914 1211.32889112 -242.6875 1187.1875 C-243.62513184 1186.77661133 -244.56276367 1186.36572266 -245.52880859 1185.94238281 C-250.50507063 1183.76049022 -255.45759077 1181.53311257 -260.38867188 1179.25097656 C-261.92980942 1178.53802041 -263.47280854 1177.82907544 -265.01757812 1177.12402344 C-278.24729882 1171.08292913 -291.02557929 1164.33849816 -303.6875 1157.1875 C-304.55681152 1156.69830078 -305.42612305 1156.20910156 -306.32177734 1155.70507812 C-334.97730637 1139.47215478 -362.60635891 1120.65794743 -387.94775391 1099.62744141 C-390.38761101 1097.6080368 -392.85169564 1095.61879039 -395.3125 1093.625 C-413.28562657 1078.88269226 -413.28562657 1078.88269226 -420.01367188 1071.86035156 C-421.67097711 1070.20401325 -423.39229761 1068.69785066 -425.1796875 1067.18359375 C-430.15951211 1062.85348509 -434.81701024 1058.2086622 -439.47070312 1053.53466797 C-440.94548626 1052.05448449 -442.42559464 1050.57977566 -443.90625 1049.10546875 C-444.85969608 1048.15136242 -445.81283221 1047.19694622 -446.765625 1046.2421875 C-448.04034668 1044.96577393 -448.04034668 1044.96577393 -449.34082031 1043.66357422 C-451.61032487 1041.26893052 -453.64598448 1038.77664635 -455.6875 1036.1875 C-456.43 1035.445 -457.1725 1034.7025 -457.9375 1033.9375 C-461.6998663 1030.1751337 -465.18046252 1026.18675326 -468.6875 1022.1875 C-469.29722656 1021.50558594 -469.90695312 1020.82367187 -470.53515625 1020.12109375 C-474.6875 1015.41903073 -474.6875 1015.41903073 -474.6875 1013.1875 C-475.3475 1013.1875 -476.0075 1013.1875 -476.6875 1013.1875 C-479.6875 1009.72596154 -479.6875 1009.72596154 -479.6875 1007.1875 C-480.3475 1007.1875 -481.0075 1007.1875 -481.6875 1007.1875 C-482.3475 1005.5375 -483.0075 1003.8875 -483.6875 1002.1875 C-484.3475 1002.1875 -485.0075 1002.1875 -485.6875 1002.1875 C-486.9765625 1000.7265625 -486.9765625 1000.7265625 -488.3125 998.8125 C-488.98152344 997.87277344 -488.98152344 997.87277344 -489.6640625 996.9140625 C-490.6875 995.1875 -490.6875 995.1875 -490.6875 993.1875 C-491.3475 993.1875 -492.0075 993.1875 -492.6875 993.1875 C-493.0175 991.8675 -493.3475 990.5475 -493.6875 989.1875 C-494.3475 989.1875 -495.0075 989.1875 -495.6875 989.1875 C-496.0175 987.8675 -496.3475 986.5475 -496.6875 985.1875 C-497.3475 985.1875 -498.0075 985.1875 -498.6875 985.1875 C-500.08462274 983.23152816 -501.40677629 981.2215906 -502.6875 979.1875 C-503.43 978.115 -504.1725 977.0425 -504.9375 975.9375 C-506.6875 973.1875 -506.6875 973.1875 -506.6875 971.1875 C-507.3475 971.1875 -508.0075 971.1875 -508.6875 971.1875 C-509.95263672 969.64624023 -509.95263672 969.64624023 -511.3671875 967.49609375 C-511.88410156 966.71556641 -512.40101562 965.93503906 -512.93359375 965.13085938 C-513.73990234 963.89045898 -513.73990234 963.89045898 -514.5625 962.625 C-515.09230469 961.82513672 -515.62210938 961.02527344 -516.16796875 960.20117188 C-518.4631043 956.71290754 -520.71144147 953.21825497 -522.765625 949.58203125 C-525.29090996 945.12172103 -528.04112024 940.81795539 -530.80078125 936.5 C-533.76553964 931.80810821 -536.46974273 927.01039332 -539.10253906 922.125 C-540.7233911 919.12098095 -542.37377245 916.13455363 -544.02734375 913.1484375 C-581.76870798 844.39007653 -605.57196441 767.99532541 -616.6875 666.1875 C-616.78321289 664.99664795 -616.87892578 663.8057959 -616.97753906 662.57885742 C-617.97663528 648.23788757 -617.93466801 633.86971934 -617.9375 619.5 C-617.93779457 618.81357925 -617.93808914 618.12715851 -617.93839264 617.41993713 C-617.93997343 594.55924865 -617.41436739 571.90621799 -614.6875 549.1875 C-614.59039734 548.36860291 -614.49329468 547.54970581 -614.39324951 546.70599365 C-611.30180583 520.87653111 -606.78344923 495.47448298 -600.6875 470.1875 C-600.45093689 469.20061188 -600.45093689 469.20061188 -600.20959473 468.19378662 C-589.13452907 422.16748329 -572.39563657 376.69017961 -549.77734375 335.08203125 C-547.57632734 331.02374692 -545.53658318 326.89257326 -543.5 322.75 C-540.50827484 316.70331351 -537.27467278 310.90539946 -533.6875 305.1875 C-532.37475242 303.04181812 -531.06226864 300.89597483 -529.75 298.75 C-521.0874482 284.71633857 -512.24596619 270.77943172 -502.37890625 257.5546875 C-500.61474992 255.17111688 -500.61474992 255.17111688 -499.08984375 252.3828125 C-498.62707031 251.65835937 -498.16429687 250.93390625 -497.6875 250.1875 C-497.0275 250.1875 -496.3675 250.1875 -495.6875 250.1875 C-495.3575 248.8675 -495.0275 247.5475 -494.6875 246.1875 C-494.0275 246.1875 -493.3675 246.1875 -492.6875 246.1875 C-492.3575 244.8675 -492.0275 243.5475 -491.6875 242.1875 C-491.0275 242.1875 -490.3675 242.1875 -489.6875 242.1875 C-489.46449219 241.66671875 -489.24148438 241.1459375 -489.01171875 240.609375 C-487.19051645 237.27856254 -484.85828371 234.39652712 -482.5 231.4375 C-482.00604736 230.81278809 -481.51209473 230.18807617 -481.00317383 229.54443359 C-477.857722 225.58912421 -474.61350049 221.75016045 -471.23828125 217.98828125 C-469.08272259 215.48522699 -467.15651494 212.83478431 -465.2421875 210.14453125 C-463.23736164 207.62086854 -460.99309218 205.43947376 -458.6875 203.1875 C-452.75425007 197.33725408 -446.87347457 191.52254566 -441.45703125 185.18359375 C-435.92711603 178.94565406 -429.87079928 173.23520496 -423.5390625 167.82421875 C-421.72821993 166.22349504 -420.05341757 164.55057696 -418.375 162.8125 C-414.67585622 159.04609906 -410.6096279 155.80557027 -406.5 152.5 C-403.87784106 150.34400265 -401.37141432 148.11182897 -398.875 145.8125 C-393.37647302 140.82166174 -387.59149021 136.25018508 -381.70263672 131.73583984 C-380.34365656 130.691661 -378.98858262 129.64238107 -377.63720703 128.58837891 C-354.68071776 110.6971347 -330.1101704 94.35751301 -304.6875 80.1875 C-303.19573242 79.35412109 -303.19573242 79.35412109 -301.67382812 78.50390625 C-222.76205386 34.68029878 -135.64695339 8.32298449 0 0 Z " fill="#FEFEFE" transform="translate(2434.6875,1184.8125)"/>
<path d="M0 0 C0.66 0.33 1.32 0.66 2 1 C-12.85 15.85 -27.7 30.7 -43 46 C-43 43 -43 43 -40.83984375 40.58203125 C-39.87892447 39.65206053 -38.91102372 38.72926768 -37.9375 37.8125 C-36.91473075 36.82230821 -35.89389655 35.83011382 -34.875 34.8359375 C-34.37742187 34.35092773 -33.87984375 33.86591797 -33.3671875 33.36621094 C-31.6311066 31.63137009 -30.02557329 29.8080671 -28.4375 27.9375 C-22.46703213 20.96719301 -15.86308191 14.63275336 -8.89453125 8.671875 C-5.78462737 5.92746498 -2.89076226 2.97206494 0 0 Z " fill="#9C9C9C" transform="translate(2020,1344)"/>
</svg>
